<svg xmlns="http://www.w3.org/2000/svg" viewBox="0 0 128 128" role="img" aria-label="Raid Radar logo">
  <defs>
    <radialGradient id="screen" cx="48%" cy="42%" r="63%">
      <stop offset="0" stop-color="#244f3d"/>
      <stop offset="0.62" stop-color="#15392c"/>
      <stop offset="1" stop-color="#0b1f18"/>
    </radialGradient>
    <linearGradient id="sweep" x1="64" y1="64" x2="109" y2="31" gradientUnits="userSpaceOnUse">
      <stop offset="0" stop-color="#9be58a" stop-opacity="0.78"/>
      <stop offset="0.55" stop-color="#71c86e" stop-opacity="0.34"/>
      <stop offset="1" stop-color="#71c86e" stop-opacity="0"/>
    </linearGradient>
    <filter id="glow" x="-60%" y="-60%" width="220%" height="220%">
      <feGaussianBlur stdDeviation="2.2" result="blur"/>
      <feMerge>
        <feMergeNode in="blur"/>
        <feMergeNode in="SourceGraphic"/>
      </feMerge>
    </filter>
  </defs>
  <circle cx="64" cy="64" r="59" fill="#dce9e2" stroke="#15392c" stroke-width="5"/>
  <circle cx="64" cy="64" r="52" fill="url(#screen)" stroke="#2e6b4e" stroke-width="5"/>
  <path d="M64 64 L104 25 A52 52 0 0 1 116 58 Z" fill="url(#sweep)"/>
  <circle cx="64" cy="64" r="40" fill="none" stroke="#9be58a" stroke-width="1.6" opacity="0.34"/>
  <circle cx="64" cy="64" r="27" fill="none" stroke="#9be58a" stroke-width="1.4" opacity="0.28"/>
  <circle cx="64" cy="64" r="14" fill="none" stroke="#9be58a" stroke-width="1.2" opacity="0.24"/>
  <path d="M64 16v96M16 64h96M30 30l68 68M98 30L30 98" stroke="#9be58a" stroke-width="1.3" opacity="0.18"/>
  <path d="M64 64L108 36" stroke="#b8f59d" stroke-width="3.2" stroke-linecap="round" opacity="0.9" filter="url(#glow)"/>
  <circle cx="64" cy="64" r="3.4" fill="#b8f59d" filter="url(#glow)"/>
  <circle cx="91" cy="47" r="4.8" fill="#d07a2d" stroke="#fff5e8" stroke-width="2.4" filter="url(#glow)"/>
  <circle cx="43" cy="76" r="3.2" fill="#9be58a" filter="url(#glow)"/>
  <circle cx="76" cy="91" r="2.8" fill="#9be58a" filter="url(#glow)"/>
  <path d="M63 5v10M63 113v10M5 65h10M113 65h10M23 23l7 7M98 98l7 7M105 23l-7 7M30 98l-7 7" stroke="#15392c" stroke-width="4" stroke-linecap="round"/>
  <path d="M39 114h50" stroke="#15392c" stroke-width="7" stroke-linecap="round" opacity="0.9"/>
</svg>
